<?xml version="1.0" encoding="utf-8" ?><svg xmlns="http://www.w3.org/2000/svg" width="1024" height="1024" viewBox="0 0 1024 1024"><path fill="#9ca3af" transform="scale(2 2)" d="M51.2213 232.847C52.5458 230.727 60.9444 223.539 63.4316 221.246L176.686 116.899C186.37 107.923 189.537 104.933 200.993 97.9584L242.146 72.4123C246.227 69.8565 251.318 66.421 255.487 64.1968C257.135 65.0171 258.581 65.9524 260.142 66.9178C279.602 78.9511 299.939 90.4082 319.672 102.151L453.115 181.531C455.866 183.185 458.657 184.679 461.318 186.474C461.54 191.255 461.328 197.864 461.325 202.789L461.324 265.23C461.327 294.516 459.524 308.458 434.075 324.506L321.927 395.302C300.422 408.934 279.052 422.673 257.348 436.009C255.057 436.314 228.641 418.854 224.387 416.217L81.7994 328.338C59.8279 314.78 63.7783 321.679 63.7943 295.648C60.0795 292.513 55.1111 290.422 51.2213 287.184C50.9647 282.081 51.211 274.593 51.2128 269.257L51.2213 232.847ZM255.487 72.4453C251.309 74.551 245.26 78.6541 241.12 81.253L202.174 105.42C183.885 116.796 168.262 134.017 152.125 148.623L82.7849 212.638C74.5889 220.337 66.2393 227.314 58.1904 235.325L230.893 344.946C239.758 350.545 248.349 356.14 257.348 361.552C258.049 361.51 259.135 360.103 259.691 359.503L385.919 223.82C399.283 209.778 394.761 213.358 412.005 206.208C424.548 201.007 441.142 195.221 452.97 189.374C445.466 184.628 437.124 179.889 429.428 175.344L384.811 149.036C373.428 142.299 257.108 72.5705 255.487 72.4453ZM454.341 192L411.288 209.649C399.766 214.466 400.184 213.003 390.68 222.842L375.976 238.193C363.914 250.869 352.157 263.791 340.301 276.64L263.932 358.848C262.665 360.221 259.946 362.995 258.888 364.387C258.877 369.741 258.721 426.077 258.888 426.449C263.448 424.122 268.073 420.945 272.473 418.24C300.28 401.15 327.609 383.259 355.206 365.857L410.66 330.679C428.573 319.359 445.194 313.108 452.528 291.814C455.257 281.965 454.352 268.209 454.35 257.855L454.335 216.866C454.333 209.049 454.106 199.799 454.576 192.158L454.341 192ZM58.1904 238.903L58.1904 283.867C64.3142 286.976 71.5475 292.219 77.4861 295.84L233.65 392.527C240.656 396.876 249.031 402.588 256.304 406.367L256.316 377.794C256.318 374.473 256.573 367.306 256.304 364.387L79.8716 252.592C73.1306 248.374 65.0117 242.666 58.1904 238.903Z"/><path fill="#9ca3af" transform="scale(2 2)" d="M230.443 124.25C206.307 125 201.936 102.596 221.723 100.599C240.889 99.5059 250.671 119.868 230.443 124.25ZM220.822 103.298C203.835 106.957 214.48 123.788 230.443 121.418C246.363 117.898 236.48 102.07 220.822 103.298Z"/><path fill="#9ca3af" transform="scale(2 2)" d="M279.583 253.684C254.345 253.998 225.413 247.17 206.622 229.482C182.422 206.702 185.066 176.203 212.045 156.547C219.478 151.131 218.281 149.46 223.871 144.037C237.296 131.014 257.082 125.543 275.186 125.199C297.268 123.721 324.351 132.011 336.725 151.391C338.905 154.806 341.329 155.784 344.234 158.054C354.897 166.384 364.891 181.571 364.493 195.747C363.362 235.936 312.205 253.641 279.583 253.684ZM275.186 127.992C257.381 128.348 238.822 133.238 225.919 146.059C212.82 159.074 214.779 176.391 228.214 188.203C242.085 200.399 262.448 205.54 280.548 205.122C298.295 204.428 317.232 198.663 329.584 185.487C342.013 172.227 340.244 155.773 326.846 144.017C315.016 133.636 290.72 125.796 275.186 127.992ZM215.264 157.968C194.742 171.385 185.215 195.223 199.449 216.996C234.267 269.945 355.995 257.504 361.655 198.62C362.854 182.32 352.486 167.084 339.611 157.968C341.793 166.814 342.191 195.049 337.37 202.313C311.473 241.333 224.721 235.152 214.078 195.513C212.222 188.602 214.077 164.888 215.264 157.968ZM216.12 176.453C216.434 186.096 214.778 190.455 219.485 199.582C229.13 218.284 256.64 226.7 276.733 226.184L276.733 207.702C253.493 207.72 227.462 198.307 216.444 176.917C216.267 176.574 216.375 176.727 216.12 176.453ZM338.05 177.928C330.351 197.513 299.097 207.985 279.583 207.702L279.583 226.184C298.607 226.123 329.662 217.588 336.856 196.326C337.962 193.056 338.643 180.945 338.05 177.928Z"/><path fill="#9ca3af" transform="scale(2 2)" d="M174.461 176.453C151.982 178.174 142.459 156.951 163.616 152.299C172.922 151.607 189.661 157.202 185.049 168.485C183.129 173.183 178.755 174.588 174.461 176.453ZM165.176 154.813C159.901 155.743 155.94 157.592 154.597 163.25C156.885 171.636 165.086 174.547 173.008 173.501C190.799 170.2 181.325 153.572 165.176 154.813Z"/><path fill="#9ca3af" transform="scale(2 2)" d="M141.563 254.756C131.027 254.971 111.509 250.916 111.35 237.125C111.138 218.712 117.04 210.883 136.681 210.265C147.684 208.996 165.256 215.194 166.016 228.38C167.053 245.923 160.977 253.442 141.563 254.756ZM113.802 233.94C113.894 257.925 158.108 256.277 163.616 239.915C163.587 237.966 163.534 235.885 163.616 233.94C156.305 249.317 125.152 249.475 115.585 236.087C115.279 235.659 114.177 234.2 113.802 233.94Z"/><path fill="#9ca3af" transform="scale(2 2)" d="M246.059 316.457C236.424 317.334 216.422 313.545 215.153 301.143C213.397 283.976 220.022 274.358 237.726 272.094C249.554 270.835 266.984 276.569 268.687 289.97C270.822 306.769 263.057 314.326 246.059 316.457ZM217.59 295.648C217.566 319.623 255.448 318.949 266.245 302.25C266.253 300.248 266.214 298.193 266.245 296.204C256.302 309.673 236.121 310.458 222.855 301.655C220.145 299.857 219.379 297.391 217.59 295.648Z"/><path fill="#9ca3af" transform="scale(2 2)" d="M167.032 340.377C163.761 340.192 147.004 328.648 143.432 325.983C142.506 325.293 141.592 308.078 144.658 305.443C147.507 305.556 166.764 318.154 168.725 320.825C168.894 324.547 169.895 337.761 167.032 340.377ZM145.361 308.393L145.361 324.277C151.511 328.389 159.669 333.765 166.015 337.409C166.025 332.948 166.361 325.912 166.015 321.742C163.905 319.61 148.268 309.729 145.361 308.393Z"/></svg>
